<?xml version="1.0" encoding="UTF-8" standalone="no"?><!DOCTYPE svg PUBLIC "-//W3C//DTD SVG 1.1//EN" "http://www.w3.org/Graphics/SVG/1.1/DTD/svg11.dtd"><svg width="100%" height="100%" viewBox="0 0 2500 2500" version="1.1" xmlns="http://www.w3.org/2000/svg" xmlns:xlink="http://www.w3.org/1999/xlink" xml:space="preserve" xmlns:serif="http://www.serif.com/" style="fill-rule:evenodd;clip-rule:evenodd;stroke-linejoin:round;stroke-miterlimit:2;"><ellipse cx="1247.35" cy="1249.87" rx="1239.02" ry="1218.28" style="fill:#0c8599;"/><path d="M460.566,309.016c27.467,-3.136 55.922,-4.61 85.356,-4.61c165.202,0 297.649,46.997 397.339,140.991c99.691,93.995 150.35,219.117 151.978,375.367l-330.811,-0c-1.627,-68.716 -22.786,-124.55 -63.476,-167.504c-40.69,-42.953 -94.401,-64.43 -161.133,-64.43c-82.194,0 -144.246,29.952 -186.157,89.855c-41.911,59.904 -62.867,157.096 -62.867,291.577l0,36.678c0,136.121 20.752,233.93 62.256,293.426c41.504,59.497 104.574,89.245 189.209,89.245c65.105,0 118.002,-17.903 158.692,-53.711c40.69,-35.807 61.849,-83.414 63.476,-142.822l330.811,0c-0.814,89.518 -25.228,171.509 -73.242,245.972c-48.015,74.463 -113.729,132.243 -197.144,173.34c-83.415,41.097 -175.578,61.645 -276.489,61.645c-188.802,0 -337.728,-60.018 -446.777,-180.054c-34.809,-38.315 -64.062,-81.295 -87.698,-128.988c-3.707,-37.956 -5.556,-76.332 -5.556,-115.128c0,-378.754 176.165,-717.371 452.233,-940.849Z" style="fill:#fff;"/><path d="M1772.81,2353.22c-29.446,2.741 -59.879,4.094 -91.297,4.094c-96.843,0 -191.244,-19.328 -283.203,-57.983c-91.96,-38.656 -161.54,-88.501 -208.741,-149.536l156.25,-214.844c87.891,98.47 194.499,147.705 319.825,147.705c93.587,-0 166.422,-25.024 218.505,-75.073c52.084,-50.049 78.125,-121.053 78.125,-213.013l0,-70.801c-81.38,91.96 -188.395,137.94 -321.044,137.94c-158.692,-0 -287.069,-62.053 -385.132,-186.158c-98.063,-124.104 -147.095,-288.696 -147.095,-493.774l-0,-14.648c-0,-202.637 48.218,-365.804 144.653,-489.502c96.436,-123.698 226.441,-185.547 390.015,-185.547c144.857,-0 257.568,49.642 338.135,148.926l14.648,-124.512l240.013,-0c28.831,37.5 55.506,76.691 79.811,117.449l0,1159.41c0,27.504 -1.486,54.154 -4.509,79.937c-126.43,208.228 -314.304,376.32 -538.959,479.934Z" style="fill:#fff;"/><path d="M1461.78,1193.39c0,119.819 24.007,213.756 72.022,281.811c48.014,68.054 113.932,102.081 197.754,102.081c107.421,-0 184.326,-40.347 230.712,-121.04l0,-556.26c-47.2,-80.693 -123.291,-121.04 -228.271,-121.04c-84.635,0 -151.164,34.641 -199.585,103.922c-48.421,69.281 -72.632,172.79 -72.632,310.526Z" style="fill:#0c8599;"/></svg>