<?xml version="1.0" encoding="UTF-8" standalone="no"?>
<!DOCTYPE svg PUBLIC "-//W3C//DTD SVG 1.1//EN" "http://www.w3.org/Graphics/SVG/1.1/DTD/svg11.dtd"><svg width="100%"
    height="100%" viewBox="0 0 2500 2500" version="1.1" xmlns="http://www.w3.org/2000/svg"
    xmlns:xlink="http://www.w3.org/1999/xlink" xml:space="preserve" xmlns:serif="http://www.serif.com/"
    style="fill-rule:evenodd;clip-rule:evenodd;stroke-linecap:round;stroke-linejoin:round;stroke-miterlimit:1.5;">
    <circle cx="1251.68" cy="1250.12" r="1200.33" style="fill:#0da2b2;stroke:#92b5b9;stroke-width:86.15px;" />
    <path
        d="M553.025,1348.15l-125.452,-0l0,279.773l-157.47,-0l-0,-764.258l283.972,-0c90.283,-0 159.92,20.121 208.911,60.364c48.991,40.242 73.486,97.107 73.486,170.593c0,52.14 -11.285,95.62 -33.856,130.438c-22.571,34.819 -56.777,62.551 -102.618,83.197l165.344,312.317l-0,7.349l-169.019,-0l-143.298,-279.773Zm-125.452,-127.551l127.027,-0c39.542,-0 70.162,-10.061 91.858,-30.182c21.696,-20.122 32.544,-47.854 32.544,-83.197c-0,-36.044 -10.236,-64.388 -30.707,-85.035c-20.471,-20.646 -51.878,-30.969 -94.22,-30.969l-126.502,0l0,229.383Z"
        style="fill:#e7fbfe;fill-rule:nonzero;" />
    <path
        d="M1556.11,1373.35c-5.948,82.235 -36.305,146.973 -91.07,194.214c-54.765,47.241 -126.939,70.862 -216.522,70.862c-97.982,-0 -175.055,-32.982 -231.22,-98.944c-56.164,-65.963 -84.247,-156.509 -84.247,-271.637l0,-46.717c0,-73.486 12.948,-138.224 38.843,-194.213c25.895,-55.99 62.901,-98.944 111.017,-128.864c48.116,-29.919 104.018,-44.879 167.706,-44.879c88.184,-0 159.221,23.621 213.111,70.862c53.89,47.241 85.034,113.554 93.432,198.938l-157.47,-0c-3.85,-49.341 -17.585,-85.122 -41.205,-107.343c-23.621,-22.221 -59.577,-33.331 -107.868,-33.331c-52.49,-0 -91.77,18.809 -117.84,56.427c-26.07,37.618 -39.455,95.97 -40.155,175.055l-0,57.739c-0,82.585 12.51,142.949 37.53,181.091c25.021,38.143 64.476,57.215 118.366,57.215c48.641,-0 84.946,-11.111 108.917,-33.332c23.97,-22.22 37.705,-56.602 41.205,-103.143l157.47,0Z"
        style="fill:#e7fbfe;fill-rule:nonzero;" />
    <path
        d="M2264.21,1531.34c-28.345,33.943 -68.413,60.276 -120.203,78.998c-51.79,18.721 -109.18,28.082 -172.168,28.082c-66.138,-0 -124.139,-14.435 -174.005,-43.305c-49.866,-28.869 -88.359,-70.774 -115.479,-125.714c-27.12,-54.939 -41.029,-119.502 -41.729,-193.689l-0,-51.965c-0,-76.286 12.86,-142.336 38.58,-198.151c25.72,-55.814 62.813,-98.506 111.279,-128.076c48.466,-29.569 105.243,-44.354 170.331,-44.354c90.633,-0 161.495,21.608 212.586,64.825c51.09,43.217 81.359,106.118 90.808,188.703l-153.272,-0c-6.999,-43.742 -22.483,-75.761 -46.454,-96.057c-23.97,-20.297 -56.952,-30.445 -98.944,-30.445c-53.54,0 -94.307,20.122 -122.302,60.364c-27.995,40.243 -42.167,100.081 -42.517,179.517l-0,48.816c-0,80.135 15.222,140.673 45.666,181.616c30.445,40.942 75.061,61.413 133.851,61.413c59.139,0 101.306,-12.597 126.501,-37.793l-0,-131.75l-143.298,-0l-0,-116.004l300.769,0l-0,304.969Z"
        style="fill:#e7fbfe;fill-rule:nonzero;" />
</svg>